<?xml version="1.0" encoding="UTF-8" standalone="no"?>
<!DOCTYPE svg PUBLIC "-//W3C//DTD SVG 1.1//EN"
        "http://www.w3.org/Graphics/SVG/1.1/DTD/svg11.dtd">
<!-- Generated by graphviz version 2.40.1 (20161225.0304)
 -->
<!-- Title: finite_state_machine Pages: 1 -->
<svg width="406pt" height="577pt"
     viewBox="0.00 0.00 405.64 576.80" xmlns="http://www.w3.org/2000/svg" xmlns:xlink="http://www.w3.org/1999/xlink">
    <g id="graph0" class="graph" transform="scale(1 1) rotate(0) translate(4 572.8)">
        <title>finite_state_machine</title>
        <polygon fill="#ffffff" stroke="transparent" points="-4,4 -4,-572.8 401.641,-572.8 401.641,4 -4,4"/>
        <!-- INIT -->
        <g id="node1" class="node">
            <title>INIT</title>
            <ellipse fill="#d3d3d3" stroke="#000000" cx="207" cy="-550.8" rx="30.1746" ry="18"/>
            <text text-anchor="middle" x="207" y="-546.6" font-family="Times,serif" font-size="14.00" fill="#000000">INIT</text>
        </g>
        <!-- WAIT_RPC -->
        <g id="node2" class="node">
            <title>WAIT_RPC</title>
            <ellipse fill="none" stroke="#000000" cx="94" cy="-462" rx="59.1295" ry="18"/>
            <text text-anchor="middle" x="94" y="-457.8" font-family="Times,serif" font-size="14.00" fill="#000000">WAIT_RPC</text>
        </g>
        <!-- INIT&#45;&gt;WAIT_RPC -->
        <g id="edge1" class="edge">
            <title>INIT&#45;&gt;WAIT_RPC</title>
            <path fill="none" stroke="#000000" d="M188.5931,-536.3351C171.0041,-522.5129 144.1956,-501.4457 123.6039,-485.264"/>
            <polygon fill="#000000" stroke="#000000" points="125.5124,-482.3124 115.4871,-478.8854 121.1872,-487.8163 125.5124,-482.3124"/>
            <text text-anchor="middle" x="173.0505" y="-502.2" font-family="Times,serif" font-size="14.00" fill="#000000">start</text>
        </g>
        <!-- WAIT_SOCKET -->
        <g id="node3" class="node">
            <title>WAIT_SOCKET</title>
            <ellipse fill="none" stroke="#000000" cx="86" cy="-106.8" rx="78.7318" ry="18"/>
            <text text-anchor="middle" x="86" y="-102.6" font-family="Times,serif" font-size="14.00" fill="#000000">WAIT_SOCKET</text>
        </g>
        <!-- INIT&#45;&gt;WAIT_SOCKET -->
        <g id="edge2" class="edge">
            <title>INIT&#45;&gt;WAIT_SOCKET</title>
            <path fill="none" stroke="#000000" d="M178.2175,-544.7681C121.3396,-532.0167 0,-500.3226 0,-462 0,-462 0,-462 0,-195.6 0,-167.0546 23.2152,-144.2003 45.5222,-128.829"/>
            <polygon fill="#000000" stroke="#000000" points="47.5176,-131.7062 53.9768,-123.308 43.6902,-125.8452 47.5176,-131.7062"/>
            <text text-anchor="middle" x="12.0505" y="-324.6" font-family="Times,serif" font-size="14.00" fill="#000000">start</text>
        </g>
        <!-- WAIT_RPC&#45;&gt;WAIT_RPC -->
        <g id="edge3" class="edge">
            <title>WAIT_RPC&#45;&gt;WAIT_RPC</title>
            <path fill="none" stroke="#000000" d="M147.1194,-470.1649C160.9132,-469.663 171.3145,-466.9414 171.3145,-462 171.3145,-458.3712 165.705,-455.9394 157.2619,-454.7049"/>
            <polygon fill="#000000" stroke="#000000" points="157.3819,-451.2024 147.1194,-453.8351 156.7837,-458.1768 157.3819,-451.2024"/>
            <text text-anchor="middle" x="194.6427" y="-457.8" font-family="Times,serif" font-size="14.00" fill="#000000">loadRpc</text>
        </g>
        <!-- LOADED_RPC -->
        <g id="node4" class="node">
            <title>LOADED_RPC</title>
            <ellipse fill="none" stroke="#000000" cx="102" cy="-373.2" rx="73.5965" ry="18"/>
            <text text-anchor="middle" x="102" y="-369" font-family="Times,serif" font-size="14.00" fill="#000000">LOADED_RPC</text>
        </g>
        <!-- WAIT_RPC&#45;&gt;LOADED_RPC -->
        <g id="edge4" class="edge">
            <title>WAIT_RPC&#45;&gt;LOADED_RPC</title>
            <path fill="none" stroke="#000000" d="M95.6576,-443.6006C96.759,-431.375 98.2262,-415.0887 99.4721,-401.2599"/>
            <polygon fill="#000000" stroke="#000000" points="102.9604,-401.5458 100.3719,-391.272 95.9886,-400.9176 102.9604,-401.5458"/>
            <text text-anchor="middle" x="128.9355" y="-413.4" font-family="Times,serif" font-size="14.00" fill="#000000">loadedRpc</text>
        </g>
        <!-- DEFINED_SOCKET -->
        <g id="node5" class="node">
            <title>DEFINED_SOCKET</title>
            <ellipse fill="none" stroke="#000000" cx="263" cy="-18" rx="94.9225" ry="18"/>
            <text text-anchor="middle" x="263" y="-13.8" font-family="Times,serif" font-size="14.00" fill="#000000">DEFINED_SOCKET</text>
        </g>
        <!-- WAIT_SOCKET&#45;&gt;DEFINED_SOCKET -->
        <g id="edge5" class="edge">
            <title>WAIT_SOCKET&#45;&gt;DEFINED_SOCKET</title>
            <path fill="none" stroke="#000000" d="M112.6083,-89.8568C130.2261,-78.9702 154.0346,-64.8821 175.9172,-54 187.1288,-48.4245 199.4206,-42.965 211.1444,-38.0504"/>
            <polygon fill="#000000" stroke="#000000" points="212.4845,-41.2837 220.3935,-34.234 209.8145,-34.8129 212.4845,-41.2837"/>
            <text text-anchor="middle" x="212.5414" y="-58.2" font-family="Times,serif" font-size="14.00" fill="#000000">defineSocket</text>
        </g>
        <!-- VALIDATION -->
        <g id="node6" class="node">
            <title>VALIDATION</title>
            <ellipse fill="none" stroke="#000000" cx="235" cy="-284.4" rx="71.1862" ry="18"/>
            <text text-anchor="middle" x="235" y="-280.2" font-family="Times,serif" font-size="14.00" fill="#000000">VALIDATION</text>
        </g>
        <!-- LOADED_RPC&#45;&gt;VALIDATION -->
        <g id="edge7" class="edge">
            <title>LOADED_RPC&#45;&gt;VALIDATION</title>
            <path fill="none" stroke="#000000" d="M120.6756,-355.6139C132.7546,-344.7357 149.1196,-330.8943 164.9172,-320.4 173.1198,-314.9511 182.2513,-309.7198 191.1407,-305.0147"/>
            <polygon fill="#000000" stroke="#000000" points="192.9795,-308.0047 200.2676,-300.3149 189.7748,-301.7813 192.9795,-308.0047"/>
            <text text-anchor="middle" x="198.0414" y="-324.6" font-family="Times,serif" font-size="14.00" fill="#000000">runValidate</text>
        </g>
        <!-- DEFINED_SOCKET&#45;&gt;INIT -->
        <g id="edge12" class="edge">
            <title>DEFINED_SOCKET&#45;&gt;INIT</title>
            <path fill="none" stroke="#000000" d="M293.6226,-35.2765C316.5604,-50.7274 344,-75.7083 344,-106.8 344,-462 344,-462 344,-462 344,-509.0335 286.4388,-532.4031 245.938,-543.025"/>
            <polygon fill="#000000" stroke="#000000" points="244.928,-539.6691 236.0542,-545.4575 246.6009,-546.4663 244.928,-539.6691"/>
            <text text-anchor="middle" x="370.8205" y="-280.2" font-family="Times,serif" font-size="14.00" fill="#000000">corrupted</text>
        </g>
        <!-- DEFINED_SOCKET&#45;&gt;VALIDATION -->
        <g id="edge6" class="edge">
            <title>DEFINED_SOCKET&#45;&gt;VALIDATION</title>
            <path fill="none" stroke="#000000" d="M261.4234,-36.0864C258.3731,-70.6218 251.3168,-148.3314 244,-213.6 242.4255,-227.645 240.4674,-243.2296 238.7801,-256.1936"/>
            <polygon fill="#000000" stroke="#000000" points="235.2748,-256.0046 237.4408,-266.3757 242.2151,-256.9175 235.2748,-256.0046"/>
            <text text-anchor="middle" x="285.0414" y="-147" font-family="Times,serif" font-size="14.00" fill="#000000">runValidate</text>
        </g>
        <!-- VALIDATION&#45;&gt;INIT -->
        <g id="edge11" class="edge">
            <title>VALIDATION&#45;&gt;INIT</title>
            <path fill="none" stroke="#000000" d="M235.4672,-302.5981C236.0712,-337.322 236.0431,-415.3363 226,-480 223.7499,-494.4877 219.6772,-510.2739 215.878,-523.256"/>
            <polygon fill="#000000" stroke="#000000" points="212.4795,-522.4026 212.9298,-532.9878 219.1789,-524.4322 212.4795,-522.4026"/>
            <text text-anchor="middle" x="260.8205" y="-413.4" font-family="Times,serif" font-size="14.00" fill="#000000">corrupted</text>
        </g>
        <!-- WORKING -->
        <g id="node7" class="node">
            <title>WORKING</title>
            <ellipse fill="none" stroke="#000000" cx="86" cy="-195.6" rx="57.8849" ry="18"/>
            <text text-anchor="middle" x="86" y="-191.4" font-family="Times,serif" font-size="14.00" fill="#000000">WORKING</text>
        </g>
        <!-- VALIDATION&#45;&gt;WORKING -->
        <g id="edge8" class="edge">
            <title>VALIDATION&#45;&gt;WORKING</title>
            <path fill="none" stroke="#000000" d="M206.9742,-267.6974C182.8433,-253.316 147.8815,-232.4797 121.7421,-216.9014"/>
            <polygon fill="#000000" stroke="#000000" points="123.2785,-213.7426 112.8965,-211.6296 119.6948,-219.7557 123.2785,-213.7426"/>
            <text text-anchor="middle" x="199.6578" y="-235.8" font-family="Times,serif" font-size="14.00" fill="#000000">validated</text>
        </g>
        <!-- WORKING&#45;&gt;WAIT_SOCKET -->
        <g id="edge10" class="edge">
            <title>WORKING&#45;&gt;WAIT_SOCKET</title>
            <path fill="none" stroke="#000000" d="M86,-177.2006C86,-165.0949 86,-149.0076 86,-135.2674"/>
            <polygon fill="#000000" stroke="#000000" points="89.5001,-134.872 86,-124.872 82.5001,-134.8721 89.5001,-134.872"/>
            <text text-anchor="middle" x="112.8205" y="-147" font-family="Times,serif" font-size="14.00" fill="#000000">corrupted</text>
        </g>
        <!-- WORKING&#45;&gt;LOADED_RPC -->
        <g id="edge9" class="edge">
            <title>WORKING&#45;&gt;LOADED_RPC</title>
            <path fill="none" stroke="#000000" d="M87.6265,-213.6543C90.4206,-244.6691 96.1512,-308.2781 99.4705,-345.122"/>
            <polygon fill="#000000" stroke="#000000" points="95.9945,-345.5478 100.3778,-355.1934 102.9663,-344.9197 95.9945,-345.5478"/>
            <text text-anchor="middle" x="122.8205" y="-280.2" font-family="Times,serif" font-size="14.00" fill="#000000">corrupted</text>
        </g>
        <!-- WORKING&#45;&gt;WORKING -->
        <g id="edge13" class="edge">
            <title>WORKING&#45;&gt;WORKING</title>
            <path fill="none" stroke="#000000" d="M137.6517,-203.7775C151.3313,-203.3102 161.6921,-200.5844 161.6921,-195.6 161.6921,-191.9396 156.1044,-189.4972 147.7181,-188.2729"/>
            <polygon fill="#000000" stroke="#000000" points="147.9109,-184.7768 137.6517,-187.4225 147.3215,-191.752 147.9109,-184.7768"/>
            <text text-anchor="middle" x="198.2335" y="-191.4" font-family="Times,serif" font-size="14.00" fill="#000000">defineSocket</text>
        </g>
    </g>
</svg>